<?xml version="1.0" standalone="no"?>
<!DOCTYPE svg PUBLIC "-//W3C//DTD SVG 1.1//EN"
"http://www.w3.org/Graphics/SVG/1.1/DTD/svg11.dtd">

<svg width="412" height="331" view_box="0 0 412 331"
xmlns="http://www.w3.org/2000/svg"
xmlns:link="http://www.w3.org/1999/xlink">\n\n<desc>Généré par Mocodo 2.3.7 le Fri, 20 Mar 2020 06:10:32</desc>

<rect id="frame" x="0" y="0" width="412" height="331" fill="#f7f7f7" stroke="none" stroke-width="0"/>

<!-- Association ECRIRE -->
<line x1="70" y1="94" x2="193" y2="94" stroke="#d6604d" stroke-width="2"/>
<text x="136" y="111.0" fill="#2166ac" font-family="Verdana" font-size="12">1,N</text>
<line x1="334" y1="94" x2="193" y2="94" stroke="#d6604d" stroke-width="2"/>
<text x="239" y="111.0" fill="#2166ac" font-family="Verdana" font-size="12">1,1</text>
<g id="association-ECRIRE">
	<path d="M 209 69 a 14 14 90 0 1 14 14 V 94 h -60 V 83 a 14 14 90 0 1 14 -14" fill="#f4a582" stroke="#f4a582" stroke-width="0"/>
	<path d="M 223 94.0 v 11 a 14 14 90 0 1 -14 14 H 177 a 14 14 90 0 1 -14 -14 V 94.0 H 60" fill="#fddbc7" stroke="#fddbc7" stroke-width="0"/>
	<rect x="163" y="69" width="60" height="50" fill="none" rx="14" stroke="#d6604d" stroke-width="2"/>
	<line x1="163" y1="94" x2="223" y2="94" stroke="#d6604d" stroke-width="1"/>
	<text x="170" y="86.7" fill="#000000" font-family="Verdana" font-size="12">ECRIRE</text>
</g>

<!-- Association CITER -->
<line x1="70" y1="94" x2="70" y2="263" stroke="#d6604d" stroke-width="2"/>
<text x="75.0" y="196" fill="#2166ac" font-family="Verdana" font-size="12">1,N</text>
<line x1="193" y1="263" x2="70" y2="263" stroke="#d6604d" stroke-width="2"/>
<text x="108" y="280.0" fill="#2166ac" font-family="Verdana" font-size="12">1,N</text>
<g id="association-CITER">
	<path d="M 82 238 a 14 14 90 0 1 14 14 V 263 h -52 V 252 a 14 14 90 0 1 14 -14" fill="#f4a582" stroke="#f4a582" stroke-width="0"/>
	<path d="M 96 263.0 v 11 a 14 14 90 0 1 -14 14 H 58 a 14 14 90 0 1 -14 -14 V 263.0 H 52" fill="#fddbc7" stroke="#fddbc7" stroke-width="0"/>
	<rect x="44" y="238" width="52" height="50" fill="none" rx="14" stroke="#d6604d" stroke-width="2"/>
	<line x1="44" y1="263" x2="96" y2="263" stroke="#d6604d" stroke-width="1"/>
	<text x="51" y="255.7" fill="#000000" font-family="Verdana" font-size="12">CITER</text>
</g>

<!-- Entity OEUVRE -->
<g id="entity-OEUVRE">
	<g id="frame-OEUVRE">
		<rect x="265" y="35" width="138" height="25" fill="#92c5de" stroke="#92c5de" stroke-width="0"/>
		<rect x="265" y="60.0" width="138" height="93" fill="#d1e5f0" stroke="#d1e5f0" stroke-width="0"/>
		<rect x="265" y="35" width="138" height="118" fill="none" stroke="#4393c3" stroke-width="2"/>
		<line x1="265" y1="60" x2="403" y2="60" stroke="#4393c3" stroke-width="1"/>
	</g>
	<text x="308" y="52.7" fill="#000000" font-family="Verdana" font-size="12">OEUVRE</text>
	<text x="270" y="77.7" fill="#000000" font-family="Verdana" font-size="12">oeuvre_id</text>
	<line x1="270" y1="80" x2="331" y2="80" stroke="#000000" stroke-width="1"/>
	<text x="270" y="94.8" fill="#000000" font-family="Verdana" font-size="12">oeuvre_titre_original</text>
	<text x="270" y="111.8" fill="#000000" font-family="Verdana" font-size="12">oeuvre_autre_titre</text>
	<text x="270" y="128.8" fill="#000000" font-family="Verdana" font-size="12">oeuvre_date</text>
	<text x="270" y="145.8" fill="#000000" font-family="Verdana" font-size="12">oeuvre_auteur_fk</text>
</g>

<!-- Entity AUTEUR -->
<g id="entity-AUTEUR">
	<g id="frame-AUTEUR">
		<rect x="9" y="9" width="122" height="25" fill="#92c5de" stroke="#92c5de" stroke-width="0"/>
		<rect x="9" y="34.0" width="122" height="145" fill="#d1e5f0" stroke="#d1e5f0" stroke-width="0"/>
		<rect x="9" y="9" width="122" height="170" fill="none" stroke="#4393c3" stroke-width="2"/>
		<line x1="9" y1="34" x2="131" y2="34" stroke="#4393c3" stroke-width="1"/>
	</g>
	<text x="45" y="26.7" fill="#000000" font-family="Verdana" font-size="12">AUTEUR</text>
	<text x="14" y="51.7" fill="#000000" font-family="Verdana" font-size="12">auteur_id</text>
	<line x1="14" y1="54" x2="73" y2="54" stroke="#000000" stroke-width="1"/>
	<text x="14" y="68.7" fill="#000000" font-family="Verdana" font-size="12">auteur_nom</text>
	<text x="14" y="85.7" fill="#000000" font-family="Verdana" font-size="12">auteur_origine</text>
	<text x="14" y="102.8" fill="#000000" font-family="Verdana" font-size="12">auteur_naissance</text>
	<text x="14" y="119.8" fill="#000000" font-family="Verdana" font-size="12">auteur_mort</text>
	<text x="14" y="136.8" fill="#000000" font-family="Verdana" font-size="12">auteur_profession</text>
	<text x="14" y="153.8" fill="#000000" font-family="Verdana" font-size="12">auteur_image</text>
	<text x="14" y="170.8" fill="#000000" font-family="Verdana" font-size="12">auteur_biographie</text>
</g>

<!-- Entity USER -->
<g id="entity-USER">
	<g id="frame-USER">
		<rect x="283" y="204" width="102" height="25" fill="#92c5de" stroke="#92c5de" stroke-width="0"/>
		<rect x="283" y="229.0" width="102" height="93" fill="#d1e5f0" stroke="#d1e5f0" stroke-width="0"/>
		<rect x="283" y="204" width="102" height="118" fill="none" stroke="#4393c3" stroke-width="2"/>
		<line x1="283" y1="229" x2="385" y2="229" stroke="#4393c3" stroke-width="1"/>
	</g>
	<text x="317" y="221.7" fill="#000000" font-family="Verdana" font-size="12">USER</text>
	<text x="288" y="246.7" fill="#000000" font-family="Verdana" font-size="12">user_id</text>
	<line x1="288" y1="249" x2="334" y2="249" stroke="#000000" stroke-width="1"/>
	<text x="288" y="263.8" fill="#000000" font-family="Verdana" font-size="12">user_nom</text>
	<text x="288" y="280.8" fill="#000000" font-family="Verdana" font-size="12">user_login</text>
	<text x="288" y="297.8" fill="#000000" font-family="Verdana" font-size="12">user_email</text>
	<text x="288" y="314.8" fill="#000000" font-family="Verdana" font-size="12">user_password</text>
</g>

<!-- Entity PLANTE -->
<g id="entity-PLANTE">
	<g id="frame-PLANTE">
		<rect x="135" y="204" width="116" height="25" fill="#92c5de" stroke="#92c5de" stroke-width="0"/>
		<rect x="135" y="229.0" width="116" height="93" fill="#d1e5f0" stroke="#d1e5f0" stroke-width="0"/>
		<rect x="135" y="204" width="116" height="118" fill="none" stroke="#4393c3" stroke-width="2"/>
		<line x1="135" y1="229" x2="251" y2="229" stroke="#4393c3" stroke-width="1"/>
	</g>
	<text x="169" y="221.7" fill="#000000" font-family="Verdana" font-size="12">PLANTE</text>
	<text x="140" y="246.7" fill="#000000" font-family="Verdana" font-size="12">plante_id</text>
	<line x1="140" y1="249" x2="197" y2="249" stroke="#000000" stroke-width="1"/>
	<text x="140" y="263.8" fill="#000000" font-family="Verdana" font-size="12">plante_latin</text>
	<text x="140" y="280.8" fill="#000000" font-family="Verdana" font-size="12">plante_fran</text>
	<text x="140" y="297.8" fill="#000000" font-family="Verdana" font-size="12">plante_rhapsodie</text>
	<text x="140" y="314.8" fill="#000000" font-family="Verdana" font-size="12">plante_texte</text>
</g>
</svg>